<svg xmlns="http://www.w3.org/2000/svg" viewBox="0 0 32 32" width="32" height="32">
  <rect width="32" height="32" rx="7" fill="#10B981"/>
  <!-- bubble mark scaled to 20×23 and offset to center (+6, +4.5) -->
  <g transform="translate(6,4.5) scale(0.5)">
    <defs>
      <clipPath id="c">
        <path d="M10,2 H30 Q38,2 38,10 V28 Q38,36 30,36 H16 L6,46 L6,36 Q2,36 2,28 V10 Q2,2 10,2 Z"/>
      </clipPath>
    </defs>
    <path d="M10,2 H30 Q38,2 38,10 V28 Q38,36 30,36 H16 L6,46 L6,36 Q2,36 2,28 V10 Q2,2 10,2 Z" fill="white" opacity=".95"/>
    <g clip-path="url(#c)">
      <circle cx="12" cy="19" r="4" fill="#059669"/>
      <path d="M12,13 A6,6 0 0,1 12,25" stroke="#059669" stroke-width="4.5" stroke-linecap="round" fill="none"/>
      <path d="M12,8 A11,11 0 0,1 12,30" stroke="#059669" stroke-width="3.2" stroke-linecap="round" fill="none" opacity=".65"/>
    </g>
  </g>
</svg>